# xmcd CD database file
#
# Track frame offsets:
#	150
#	9879
#	24599
#	36033
#	48200
#	58391
#	69496
#	78602
#	89110
#	100076
#	111535
#	129668
#	140978
#	153799
#	162147
#	172315
#	181494
#	192649
#	205425
#	216996
#	230604
#	243760
#	253566
#
# Disc length: 3530 seconds
#
# Revision: 0
# Processed by: cddbd v1.5PL3 Copyright (c) Steve Scherf et al.
# Submitted via: CDex 1.50Beta7
#
DISCID=570dc817
DTITLE=GIL TRYTHALL  - COUNTRY MOOG and NASHVILLE GOLD
DYEAR=1972
DGENRE=Country
TTITLE0=FOGGY MOUNTAIN BREAKDOWN
TTITLE1=FOLSOM PRISON BLUES
TTITLE2=LAST DATE
TTITLE3=HARPER VALLEY P.T.A.
TTITLE4=CATTLE CALL
TTITLE5=GENTLE ON MY MIND
TTITLE6=WILDWOOD FLOWER
TTITLE7=ORANGE BLOSSOM SPECIAL
TTITLE8=WALKING THE FLOOR OVER YOU
TTITLE9=DECKER'S CREEK
TTITLE10=LITTLE GREEN APPLES
TTITLE11=YAKETY MOOG
TTITLE12=WICHITA LINEMAN
TTITLE13=MARTHA WHITE THEME
TTITLE14=I CAN'T STOP LOVING YOU
TTITLE15=KING OF THE ROAD
TTITLE16=TENNESSEE WALTZ
TTITLE17=NASHVILLE MOOG
TTITLE18=POKE SALAD ANNIE
TTITLE19=ODE TO BILLY JOE
TTITLE20=HONEY
TTITLE21=KANSAS CITY
TTITLE22=MOCKIN' BIRD HILL
EXTD=YEAR: 1972
EXTT0=
EXTT1=
EXTT2=
EXTT3=
EXTT4=
EXTT5=
EXTT6=
EXTT7=
EXTT8=
EXTT9=
EXTT10=
EXTT11=
EXTT12=
EXTT13=
EXTT14=
EXTT15=
EXTT16=
EXTT17=
EXTT18=
EXTT19=
EXTT20=
EXTT21=
EXTT22=
PLAYORDER=
